<?xml version="1.0" encoding="UTF-8"?>
<!DOCTYPE svg PUBLIC "-//W3C//DTD SVG 1.1//EN" "http://www.w3.org/Graphics/SVG/1.1/DTD/svg11.dtd">
<svg xmlns="http://www.w3.org/2000/svg" version="1.1" width="313px" height="685px" style="shape-rendering:geometricPrecision; text-rendering:geometricPrecision; image-rendering:optimizeQuality; fill-rule:evenodd; clip-rule:evenodd" xmlns:xlink="http://www.w3.org/1999/xlink">
<g><path style="opacity:1" fill="#ebebeb" d="M -0.5,-0.5 C 103.833,-0.5 208.167,-0.5 312.5,-0.5C 312.5,227.833 312.5,456.167 312.5,684.5C 311.833,684.5 311.167,684.5 310.5,684.5C 310.5,456.5 310.5,228.5 310.5,0.5C 207.5,0.5 104.5,0.5 1.5,0.5C 1.5,228.5 1.5,456.5 1.5,684.5C 0.833333,684.5 0.166667,684.5 -0.5,684.5C -0.5,456.167 -0.5,227.833 -0.5,-0.5 Z"/></g>
<g><path style="opacity:1" fill="#fefefe" d="M 310.5,684.5 C 207.5,684.5 104.5,684.5 1.5,684.5C 1.5,456.5 1.5,228.5 1.5,0.5C 104.5,0.5 207.5,0.5 310.5,0.5C 310.5,228.5 310.5,456.5 310.5,684.5 Z"/></g>
<g><path style="opacity:1" fill="#b693d4" d="M 36.5,308.5 C 36.1667,308.5 35.8333,308.5 35.5,308.5C 32.3752,307.521 29.0419,307.187 25.5,307.5C 25.5,308.5 25.5,309.5 25.5,310.5C 24.8333,324.167 24.1667,337.833 23.5,351.5C 23.5,349.5 23.5,347.5 23.5,345.5C 23.5,338.833 23.5,332.167 23.5,325.5C 23.5,319.5 23.5,313.5 23.5,307.5C 22.5,307.5 21.5,307.5 20.5,307.5C 20.5,313.833 20.5,320.167 20.5,326.5C 20.5,329.5 20.5,332.5 20.5,335.5C 20.1667,335.5 19.8333,335.5 19.5,335.5C 19.5,327.167 19.5,318.833 19.5,310.5C 19.5,309.167 19.5,307.833 19.5,306.5C 25.5982,305.883 31.2649,306.55 36.5,308.5 Z"/></g>
<g><path style="opacity:1" fill="#1d099d" d="M 35.5,308.5 C 34.5,308.833 33.8333,309.5 33.5,310.5C 30.8333,310.5 28.1667,310.5 25.5,310.5C 25.5,309.5 25.5,308.5 25.5,307.5C 29.0419,307.187 32.3752,307.521 35.5,308.5 Z"/></g>
<g><path style="opacity:1" fill="#4f1fa2" d="M 23.5,325.5 C 22.609,326.11 21.609,326.443 20.5,326.5C 20.5,320.167 20.5,313.833 20.5,307.5C 21.5,307.5 22.5,307.5 23.5,307.5C 23.5,313.5 23.5,319.5 23.5,325.5 Z"/></g>
<g><path style="opacity:1" fill="#c47ab9" d="M 35.5,308.5 C 35.8333,308.5 36.1667,308.5 36.5,308.5C 37.8166,314.346 37.8166,320.346 36.5,326.5C 35.8933,326.376 35.56,326.043 35.5,325.5C 36.6507,320.35 36.8174,315.016 36,309.5C 34.5634,313.972 34.0634,318.639 34.5,323.5C 33.5151,319.366 33.1818,315.032 33.5,310.5C 33.8333,309.5 34.5,308.833 35.5,308.5 Z"/></g>
<g><path style="opacity:1" fill="#7f2377" d="M 35.5,325.5 C 35.1667,324.833 34.8333,324.167 34.5,323.5C 34.0634,318.639 34.5634,313.972 36,309.5C 36.8174,315.016 36.6507,320.35 35.5,325.5 Z"/></g>
<g><path style="opacity:1" fill="#360d99" d="M 14.5,307.5 C 16.4563,313.412 17.1229,319.745 16.5,326.5C 15.8826,326.611 15.3826,326.944 15,327.5C 14.5004,320.842 14.3337,314.175 14.5,307.5 Z"/></g>
<g><path style="opacity:1" fill="#702b97" d="M 13.5,307.5 C 13.8333,307.5 14.1667,307.5 14.5,307.5C 14.3337,314.175 14.5004,320.842 15,327.5C 15.3826,326.944 15.8826,326.611 16.5,326.5C 16.5,331.5 16.5,336.5 16.5,341.5C 14.9397,339.844 13.9397,337.844 13.5,335.5C 13.5,326.167 13.5,316.833 13.5,307.5 Z"/></g>
<g><path style="opacity:1" fill="#a778ca" d="M 13.5,307.5 C 14.5676,306.566 15.901,306.232 17.5,306.5C 17.5,307.833 17.5,309.167 17.5,310.5C 17.5,321.167 17.5,331.833 17.5,342.5C 17.1667,342.5 16.8333,342.5 16.5,342.5C 16.5,342.167 16.5,341.833 16.5,341.5C 16.5,336.5 16.5,331.5 16.5,326.5C 17.1229,319.745 16.4563,313.412 14.5,307.5C 14.1667,307.5 13.8333,307.5 13.5,307.5 Z"/></g>
<g><path style="opacity:1" fill="#151515" d="M 135.5,332.5 C 140.179,332.334 144.845,332.501 149.5,333C 150.756,333.417 151.423,334.25 151.5,335.5C 152.1,339.516 151.1,343.016 148.5,346C 149.282,348.672 150.282,351.172 151.5,353.5C 151.361,355.337 150.694,355.67 149.5,354.5C 148.305,352.249 147.305,349.915 146.5,347.5C 143.572,346.516 140.572,346.183 137.5,346.5C 137.817,349.572 137.484,352.572 136.5,355.5C 135.503,347.862 135.169,340.196 135.5,332.5 Z"/></g>
<g><path style="opacity:1" fill="#1c1c1c" d="M 60.5,335.5 C 61.1001,339.516 60.1001,343.016 57.5,346C 58.282,348.672 59.282,351.172 60.5,353.5C 60.2942,355.549 59.4609,355.883 58,354.5C 57.2952,351.524 56.1286,348.858 54.5,346.5C 52.0521,345.527 49.3854,345.194 46.5,345.5C 46.5,348.833 46.5,352.167 46.5,355.5C 45.5,355.5 44.5,355.5 43.5,355.5C 43.5,348.833 43.5,342.167 43.5,335.5C 43.5,334.5 43.5,333.5 43.5,332.5C 48.5111,332.334 53.5111,332.501 58.5,333C 59.3805,333.708 60.0472,334.542 60.5,335.5 Z"/></g>
<g><path style="opacity:1" fill="#dedede" d="M 46.5,334.5 C 49.8499,334.335 53.1832,334.502 56.5,335C 57.8333,337.667 57.8333,340.333 56.5,343C 53.1832,343.498 49.8499,343.665 46.5,343.5C 46.5,340.5 46.5,337.5 46.5,334.5 Z"/></g>
<g><path style="opacity:1" fill="#dbdbdb" d="M 137.5,334.5 C 140.85,334.335 144.183,334.502 147.5,335C 148.833,337.667 148.833,340.333 147.5,343C 144.183,343.498 140.85,343.665 137.5,343.5C 137.5,340.5 137.5,337.5 137.5,334.5 Z"/></g>
<g><path style="opacity:1" fill="#333333" d="M 232.5,332.5 C 233.5,332.5 234.5,332.5 235.5,332.5C 235.5,340.167 235.5,347.833 235.5,355.5C 234.5,355.5 233.5,355.5 232.5,355.5C 232.5,347.833 232.5,340.167 232.5,332.5 Z"/></g>
<g><path style="opacity:1" fill="#222222" d="M 114.5,345.5 C 115.918,343.692 117.918,343.025 120.5,343.5C 120.5,347.5 120.5,351.5 120.5,355.5C 116.486,355.666 112.486,355.499 108.5,355C 107.646,353.978 106.646,353.145 105.5,352.5C 104.505,347.208 104.172,341.875 104.5,336.5C 105.347,334.156 107.014,332.656 109.5,332C 113.711,331.079 117.711,331.579 121.5,333.5C 117.153,334.222 112.82,334.888 108.5,335.5C 107.337,340.802 107.171,346.136 108,351.5C 111.394,352.456 114.894,352.789 118.5,352.5C 118.5,350.167 118.5,347.833 118.5,345.5C 117.167,345.5 115.833,345.5 114.5,345.5 Z"/></g>
<g><path style="opacity:1" fill="#212121" d="M 262.5,346.5 C 262.369,347.376 262.702,348.043 263.5,348.5C 264.495,343.208 264.828,337.875 264.5,332.5C 265.5,332.5 266.5,332.5 267.5,332.5C 267.5,340.167 267.5,347.833 267.5,355.5C 266.5,355.5 265.5,355.5 264.5,355.5C 261.254,349.582 257.587,343.915 253.5,338.5C 253.44,337.957 253.107,337.624 252.5,337.5C 251.504,343.463 251.171,349.463 251.5,355.5C 249.535,348.24 248.868,340.573 249.5,332.5C 250.978,332.238 252.311,332.571 253.5,333.5C 256.263,338.037 259.263,342.37 262.5,346.5 Z"/></g>
<g><path style="opacity:1" fill="#b6b6b6" d="M 264.5,332.5 C 264.828,337.875 264.495,343.208 263.5,348.5C 262.702,348.043 262.369,347.376 262.5,346.5C 263.167,341.833 263.833,337.167 264.5,332.5 Z"/></g>
<g><path style="opacity:1" fill="#222222" d="M 290.5,345.5 C 291.918,343.692 293.918,343.025 296.5,343.5C 296.763,347.6 296.43,351.6 295.5,355.5C 291.818,355.665 288.152,355.499 284.5,355C 283,354.167 281.833,353 281,351.5C 280.501,346.845 280.334,342.179 280.5,337.5C 280.913,334.585 282.579,332.752 285.5,332C 289.711,331.079 293.711,331.579 297.5,333.5C 293.153,334.222 288.82,334.888 284.5,335.5C 283.337,340.802 283.171,346.136 284,351.5C 287.394,352.456 290.894,352.789 294.5,352.5C 294.5,350.167 294.5,347.833 294.5,345.5C 293.167,345.5 291.833,345.5 290.5,345.5 Z"/></g>
<g><path style="opacity:1" fill="#b6b6b6" d="M 151.5,335.5 C 152.664,341.349 152.664,347.349 151.5,353.5C 150.282,351.172 149.282,348.672 148.5,346C 151.1,343.016 152.1,339.516 151.5,335.5 Z"/></g>
<g><path style="opacity:1" fill="#c8c8c8" d="M 60.5,335.5 C 61.4782,338.803 62.1449,342.303 62.5,346C 62.0552,348.59 61.3886,351.09 60.5,353.5C 59.282,351.172 58.282,348.672 57.5,346C 60.1001,343.016 61.1001,339.516 60.5,335.5 Z"/></g>
<g><path style="opacity:1" fill="#565656" d="M 253.5,338.5 C 252.511,343.975 252.178,349.642 252.5,355.5C 252.167,355.5 251.833,355.5 251.5,355.5C 251.171,349.463 251.504,343.463 252.5,337.5C 253.107,337.624 253.44,337.957 253.5,338.5 Z"/></g>
<g><path style="opacity:1" fill="#cbcbcb" d="M 253.5,338.5 C 257.587,343.915 261.254,349.582 264.5,355.5C 260.753,353.301 257.42,350.634 254.5,347.5C 253.832,350.306 253.166,352.972 252.5,355.5C 252.178,349.642 252.511,343.975 253.5,338.5 Z"/></g>
<g><path style="opacity:1" fill="#dab0d2" d="M 13.5,307.5 C 13.5,316.833 13.5,326.167 13.5,335.5C 13.5,342.5 13.5,349.5 13.5,356.5C 12.9106,360.971 13.5772,364.971 15.5,368.5C 15.2942,370.549 14.4609,370.883 13,369.5C 12.5,350.17 12.3334,330.836 12.5,311.5C 12.2322,309.901 12.5655,308.568 13.5,307.5 Z"/></g>
<g><path style="opacity:1" fill="#2d2d2d" d="M 182.5,351.5 C 182.539,352.583 182.873,353.583 183.5,354.5C 182.675,355.386 181.675,355.719 180.5,355.5C 179.833,353.5 179.167,351.5 178.5,349.5C 174.833,349.5 171.167,349.5 167.5,349.5C 167.509,351.308 167.009,352.975 166,354.5C 164.708,355.791 163.542,355.791 162.5,354.5C 164.894,347.486 167.394,340.486 170,333.5C 172,332.167 174,332.167 176,333.5C 178.066,339.521 180.232,345.521 182.5,351.5 Z"/></g>
<g><path style="opacity:1" fill="#c7c7c7" d="M 172.5,335.5 C 173.497,335.47 174.164,335.97 174.5,337C 175.401,339.871 176.401,342.704 177.5,345.5C 174.833,346.833 172.167,346.833 169.5,345.5C 170.755,342.208 171.755,338.875 172.5,335.5 Z"/></g>
<g><path style="opacity:1" fill="#f5dbee" d="M 17.5,310.5 C 18.1667,310.5 18.8333,310.5 19.5,310.5C 19.5,318.833 19.5,327.167 19.5,335.5C 19.5,341.5 19.5,347.5 19.5,353.5C 18.8333,357.833 18.1667,362.167 17.5,366.5C 17.5,358.5 17.5,350.5 17.5,342.5C 17.5,331.833 17.5,321.167 17.5,310.5 Z"/></g>
<g><path style="opacity:1" fill="#757677" d="M 54.5,346.5 C 52.1667,346.5 49.8333,346.5 47.5,346.5C 47.81,349.713 47.4767,352.713 46.5,355.5C 46.5,352.167 46.5,348.833 46.5,345.5C 49.3854,345.194 52.0521,345.527 54.5,346.5 Z"/></g>
<g><path style="opacity:1" fill="#171818" d="M 91.5,335.5 C 91.666,340.844 91.4994,346.177 91,351.5C 89.1962,354.817 86.3628,356.15 82.5,355.5C 79.6225,355.614 76.9558,354.948 74.5,353.5C 73.5041,347.537 73.1707,341.537 73.5,335.5C 75.549,332.749 78.3823,331.416 82,331.5C 84.5472,331.762 87.0472,332.262 89.5,333C 90.3805,333.708 91.0472,334.542 91.5,335.5 Z"/></g>
<g><path style="opacity:1" fill="#e7e7e7" d="M 77.5,334.5 C 80.8499,334.335 84.1832,334.502 87.5,335C 88,335.5 88.5,336 89,336.5C 89.8037,341.751 89.637,346.918 88.5,352C 84.4807,354.16 80.6473,353.994 77,351.5C 76.2153,345.751 76.3819,340.084 77.5,334.5 Z"/></g>
<g><path style="opacity:1" fill="#dcdcdc" d="M 135.5,332.5 C 135.169,340.196 135.503,347.862 136.5,355.5C 137.484,352.572 137.817,349.572 137.5,346.5C 140.572,346.183 143.572,346.516 146.5,347.5C 147.305,349.915 148.305,352.249 149.5,354.5C 150.694,355.67 151.361,355.337 151.5,353.5C 152.097,353.735 152.43,354.235 152.5,355C 151.556,356.477 150.223,357.477 148.5,358C 148.728,358.399 149.062,358.565 149.5,358.5C 149.5,361.5 149.5,364.5 149.5,367.5C 150.833,367.5 152.167,367.5 153.5,367.5C 153.5,369.167 153.5,370.833 153.5,372.5C 151.856,372.714 150.356,372.38 149,371.5C 148.667,368.167 148.333,364.833 148,361.5C 146.242,360.531 145.742,359.364 146.5,358C 144.963,356.89 144.297,355.39 144.5,353.5C 142.897,353.312 141.563,353.812 140.5,355C 142.932,356.087 142.598,356.587 139.5,356.5C 139.771,358.38 139.104,359.713 137.5,360.5C 137.631,359.624 137.298,358.957 136.5,358.5C 135.516,361.428 135.183,364.428 135.5,367.5C 136.833,367.5 138.167,367.5 139.5,367.5C 142.506,373.166 140.839,374.832 134.5,372.5C 133.605,370.754 132.938,368.92 132.5,367C 133.323,362.465 133.323,358.132 132.5,354C 133.147,346.692 134.147,339.526 135.5,332.5 Z"/></g>
<g><path style="opacity:1" fill="#dedede" d="M 195.5,332.5 C 194.868,340.573 195.535,348.24 197.5,355.5C 198.167,350.5 198.833,345.5 199.5,340.5C 201.043,345.257 202.876,349.924 205,354.5C 206.011,355.337 207.178,355.67 208.5,355.5C 209.486,352.507 210.486,349.507 211.5,346.5C 211.992,344.181 212.992,342.181 214.5,340.5C 215.167,345.5 215.833,350.5 216.5,355.5C 218.465,348.24 219.132,340.573 218.5,332.5C 219.93,335.197 221.263,338.031 222.5,341C 221.657,346.771 220.99,352.605 220.5,358.5C 219.197,361.355 219.197,364.355 220.5,367.5C 221.298,365.922 221.798,364.256 222,362.5C 223.041,364.585 224.541,366.252 226.5,367.5C 227.452,365.955 227.785,364.288 227.5,362.5C 228.239,362.369 228.906,362.536 229.5,363C 229.336,365.699 229.17,368.532 229,371.5C 228.196,372.804 227.029,373.471 225.5,373.5C 219.067,373.42 216.401,370.42 217.5,364.5C 216.509,362.677 215.176,361.177 213.5,360C 214.28,358.927 214.113,357.76 213,356.5C 212.005,357.066 211.172,357.733 210.5,358.5C 209.523,361.287 209.19,364.287 209.5,367.5C 208.532,365.393 208.198,363.059 208.5,360.5C 205.921,360.917 203.754,360.25 202,358.5C 201.501,362.821 201.334,367.154 201.5,371.5C 198.386,372.641 195.553,371.974 193,369.5C 193.71,357.285 194.543,344.951 195.5,332.5 Z"/></g>
<g><path style="opacity:1" fill="#737373" d="M 216.5,355.5 C 215.833,350.5 215.167,345.5 214.5,340.5C 214.281,339.325 214.614,338.325 215.5,337.5C 216.496,343.463 216.829,349.463 216.5,355.5 Z"/></g>
<g><path style="opacity:1" fill="#797878" d="M 199.5,340.5 C 198.833,345.5 198.167,350.5 197.5,355.5C 197.171,349.794 197.505,344.128 198.5,338.5C 199.298,338.957 199.631,339.624 199.5,340.5 Z"/></g>
<g><path style="opacity:1" fill="#2d2d2d" d="M 201.5,338.5 C 203.397,342.059 205.23,345.726 207,349.5C 208.213,347.075 209.379,344.741 210.5,342.5C 210.232,344.099 210.566,345.432 211.5,346.5C 210.486,349.507 209.486,352.507 208.5,355.5C 207.178,355.67 206.011,355.337 205,354.5C 202.876,349.924 201.043,345.257 199.5,340.5C 201.203,341.66 201.869,340.993 201.5,338.5 Z"/></g>
<g><path style="opacity:1" fill="#111111" d="M 218.5,332.5 C 219.132,340.573 218.465,348.24 216.5,355.5C 216.829,349.463 216.496,343.463 215.5,337.5C 214.614,338.325 214.281,339.325 214.5,340.5C 212.992,342.181 211.992,344.181 211.5,346.5C 210.566,345.432 210.232,344.099 210.5,342.5C 211.806,339.662 212.973,336.662 214,333.5C 215.356,332.62 216.856,332.286 218.5,332.5 Z"/></g>
<g><path style="opacity:1" fill="#090909" d="M 195.5,332.5 C 196.833,332.5 198.167,332.5 199.5,332.5C 199.604,334.703 200.27,336.703 201.5,338.5C 201.869,340.993 201.203,341.66 199.5,340.5C 199.631,339.624 199.298,338.957 198.5,338.5C 197.505,344.128 197.171,349.794 197.5,355.5C 195.535,348.24 194.868,340.573 195.5,332.5 Z"/></g>
<g><path style="opacity:1" fill="#d8d8d8" d="M 104.5,336.5 C 104.172,341.875 104.505,347.208 105.5,352.5C 106.646,353.145 107.646,353.978 108.5,355C 112.486,355.499 116.486,355.666 120.5,355.5C 121.485,351.366 121.818,347.032 121.5,342.5C 122.489,347.975 122.822,353.642 122.5,359.5C 119.679,359.539 117.012,360.205 114.5,361.5C 117.229,363.367 116.896,364.367 113.5,364.5C 113.509,362.692 113.009,361.025 112,359.5C 107.774,360.708 105.107,359.041 104,354.5C 103.181,348.319 103.347,342.319 104.5,336.5 Z"/></g>
<g><path style="opacity:1" fill="#4f4f4f" d="M 121.5,342.5 C 121.818,347.032 121.485,351.366 120.5,355.5C 120.5,351.5 120.5,347.5 120.5,343.5C 117.918,343.025 115.918,343.692 114.5,345.5C 113.596,344.791 113.263,343.791 113.5,342.5C 116.167,342.5 118.833,342.5 121.5,342.5 Z"/></g>
<g><path style="opacity:1" fill="#e1e2e2" d="M 182.5,351.5 C 186.104,353.728 187.104,356.728 185.5,360.5C 183.521,358.832 181.188,358.166 178.5,358.5C 178.126,355.38 176.293,354.046 173,354.5C 169.346,354.789 167.846,356.789 168.5,360.5C 167.849,359.909 167.182,359.243 166.5,358.5C 165.304,360.145 164.304,361.811 163.5,363.5C 163.085,361.253 162.418,359.086 161.5,357C 161.528,355.93 161.861,355.097 162.5,354.5C 163.542,355.791 164.708,355.791 166,354.5C 167.009,352.975 167.509,351.308 167.5,349.5C 171.167,349.5 174.833,349.5 178.5,349.5C 179.167,351.5 179.833,353.5 180.5,355.5C 181.675,355.719 182.675,355.386 183.5,354.5C 182.873,353.583 182.539,352.583 182.5,351.5 Z"/></g>
<g><path style="opacity:1" fill="#dddddd" d="M 280.5,337.5 C 280.334,342.179 280.501,346.845 281,351.5C 281.833,353 283,354.167 284.5,355C 288.152,355.499 291.818,355.665 295.5,355.5C 297.43,351.627 298.097,347.294 297.5,342.5C 298.355,348.16 298.688,353.826 298.5,359.5C 296.236,358.781 293.903,358.448 291.5,358.5C 291.5,359.833 291.5,361.167 291.5,362.5C 289.97,361.933 288.47,361.267 287,360.5C 285.404,359.952 284.237,360.618 283.5,362.5C 283.715,360.821 283.048,359.821 281.5,359.5C 281.5,358.833 281.167,358.5 280.5,358.5C 277.944,351.449 277.944,344.449 280.5,337.5 Z"/></g>
<g><path style="opacity:1" fill="#4b4b4b" d="M 297.5,342.5 C 298.097,347.294 297.43,351.627 295.5,355.5C 296.43,351.6 296.763,347.6 296.5,343.5C 293.918,343.025 291.918,343.692 290.5,345.5C 289.596,344.791 289.263,343.791 289.5,342.5C 292.167,342.5 294.833,342.5 297.5,342.5 Z"/></g>
<g><path style="opacity:1" fill="#cccccc" d="M 73.5,335.5 C 73.1707,341.537 73.5041,347.537 74.5,353.5C 76.9558,354.948 79.6225,355.614 82.5,355.5C 86.3628,356.15 89.1962,354.817 91,351.5C 91.4994,346.177 91.666,340.844 91.5,335.5C 92.812,343.068 92.812,350.735 91.5,358.5C 89.6122,360.988 88.9455,363.988 89.5,367.5C 88.5386,365.735 88.2053,363.735 88.5,361.5C 85.6146,361.194 82.9479,361.527 80.5,362.5C 79.596,361.791 79.2627,360.791 79.5,359.5C 78.1667,359.5 76.8333,359.5 75.5,359.5C 74.7177,357.549 73.3844,356.049 71.5,355C 72.1495,348.401 72.8162,341.901 73.5,335.5 Z"/></g>
<g><path style="opacity:1" fill="#7b7e7f" d="M 49.5,358.5 C 53.3865,361.73 53.0532,362.064 48.5,359.5C 47.6143,360.325 47.281,361.325 47.5,362.5C 49.5138,362.392 51.1805,363.058 52.5,364.5C 52.5858,365.496 52.2524,366.329 51.5,367C 49.272,367.82 47.272,367.487 45.5,366C 47.2251,366.409 48.8918,366.242 50.5,365.5C 48.3542,364.444 46.6875,362.944 45.5,361C 46.0319,358.98 47.3652,358.147 49.5,358.5 Z"/></g>
<g><path style="opacity:1" fill="#707275" d="M 149.5,358.5 C 151.199,358.34 152.866,358.506 154.5,359C 153.552,359.483 152.552,359.649 151.5,359.5C 151.5,360.5 151.5,361.5 151.5,362.5C 155.5,362.833 155.5,363.167 151.5,363.5C 151.5,364.5 151.5,365.5 151.5,366.5C 153.401,366.246 154.067,366.58 153.5,367.5C 152.167,367.5 150.833,367.5 149.5,367.5C 149.5,364.5 149.5,361.5 149.5,358.5 Z"/></g>
<g><path style="opacity:1" fill="#979a9c" d="M 137.5,360.5 C 137.5,362.5 137.5,364.5 137.5,366.5C 139.401,366.246 140.067,366.58 139.5,367.5C 138.167,367.5 136.833,367.5 135.5,367.5C 135.183,364.428 135.516,361.428 136.5,358.5C 137.298,358.957 137.631,359.624 137.5,360.5 Z"/></g>
<g><path style="opacity:1" fill="#8b8d90" d="M 168.5,360.5 C 168.961,362.55 169.628,364.55 170.5,366.5C 170.167,366.833 169.833,367.167 169.5,367.5C 167.564,365.022 165.564,365.022 163.5,367.5C 162.708,366.3 162.708,364.967 163.5,363.5C 164.304,361.811 165.304,360.145 166.5,358.5C 167.182,359.243 167.849,359.909 168.5,360.5 Z"/></g>
<g><path style="opacity:1" fill="#818687" d="M 198.5,358.5 C 199.765,359.514 200.431,361.014 200.5,363C 200.167,364.5 199.833,366 199.5,367.5C 198.52,366.019 197.353,364.685 196,363.5C 195.781,364.938 195.281,366.271 194.5,367.5C 193.52,364.914 193.187,362.247 193.5,359.5C 195.592,359.561 197.092,360.561 198,362.5C 198.49,361.207 198.657,359.873 198.5,358.5 Z"/></g>
<g><path style="opacity:1" fill="#888c8e" d="M 263.5,358.5 C 264.496,358.414 265.329,358.748 266,359.5C 267.312,361.955 268.478,364.455 269.5,367C 267.801,367.393 266.301,366.893 265,365.5C 263.715,365.95 262.548,366.617 261.5,367.5C 261.167,367.167 260.833,366.833 260.5,366.5C 262.287,364.142 263.287,361.475 263.5,358.5 Z"/></g>
<g><path style="opacity:1" fill="#8a8d90" d="M 75.5,359.5 C 76.8333,359.5 78.1667,359.5 79.5,359.5C 79.2627,360.791 79.596,361.791 80.5,362.5C 81.0522,364.331 81.0522,365.997 80.5,367.5C 78.5,364.833 76.5,364.833 74.5,367.5C 74.1667,367.167 73.8333,366.833 73.5,366.5C 74.5771,364.271 75.2437,361.937 75.5,359.5 Z"/></g>
<g><path style="opacity:1" fill="#888c8e" d="M 178.5,358.5 C 181.188,358.166 183.521,358.832 185.5,360.5C 185.489,362.017 184.823,363.184 183.5,364C 185.691,368.401 185.025,368.567 181.5,364.5C 180.833,365.5 180.167,366.5 179.5,367.5C 178.516,364.572 178.183,361.572 178.5,358.5 Z"/></g>
<g><path style="opacity:1" fill="#8f9293" d="M 210.5,358.5 C 211.158,359.793 211.492,361.293 211.5,363C 211.431,364.986 210.765,366.486 209.5,367.5C 209.19,364.287 209.523,361.287 210.5,358.5 Z"/></g>
<g><path style="opacity:1" fill="#86878a" d="M 280.5,358.5 C 281.167,358.5 281.5,358.833 281.5,359.5C 283.048,359.821 283.715,360.821 283.5,362.5C 282.22,363.931 280.553,364.598 278.5,364.5C 278.719,365.675 278.386,366.675 277.5,367.5C 276.516,364.572 276.183,361.572 276.5,358.5C 277.833,358.5 279.167,358.5 280.5,358.5 Z"/></g>
<g><path style="opacity:1" fill="#eeeff2" d="M 281.5,359.5 C 281.5,360.5 281.5,361.5 281.5,362.5C 280.5,362.5 279.5,362.5 278.5,362.5C 278.5,361.5 278.5,360.5 278.5,359.5C 279.5,359.5 280.5,359.5 281.5,359.5 Z"/></g>
<g><path style="opacity:1" fill="#9c9fa0" d="M 298.5,359.5 C 299.167,363.5 297.5,365.167 293.5,364.5C 293.719,365.675 293.386,366.675 292.5,367.5C 291.548,365.955 291.215,364.288 291.5,362.5C 291.5,361.167 291.5,359.833 291.5,358.5C 293.903,358.448 296.236,358.781 298.5,359.5 Z"/></g>
<g><path style="opacity:1" fill="#9fa1a3" d="M 61.5,358.5 C 63.1992,358.34 64.8659,358.506 66.5,359C 64.6787,361.456 64.012,364.289 64.5,367.5C 63.5,367.5 62.5,367.5 61.5,367.5C 61.5,365.5 61.5,363.5 61.5,361.5C 61.4226,360.25 60.756,359.417 59.5,359C 60.0944,358.536 60.7611,358.369 61.5,358.5 Z"/></g>
<g><path style="opacity:1" fill="#7d8183" d="M 91.5,358.5 C 95.35,358.701 96.35,360.534 94.5,364C 96.6913,368.401 96.0246,368.567 92.5,364.5C 91.8589,365.993 90.8589,366.993 89.5,367.5C 88.9455,363.988 89.6122,360.988 91.5,358.5 Z"/></g>
<g><path style="opacity:1" fill="#e5e9ea" d="M 91.5,359.5 C 95.31,360.754 95.31,361.754 91.5,362.5C 91.5,361.5 91.5,360.5 91.5,359.5 Z"/></g>
<g><path style="opacity:1" fill="#808385" d="M 220.5,358.5 C 222.451,359.716 223.951,361.382 225,363.5C 225.202,361.744 225.702,360.078 226.5,358.5C 227.429,359.689 227.762,361.022 227.5,362.5C 227.785,364.288 227.452,365.955 226.5,367.5C 224.541,366.252 223.041,364.585 222,362.5C 221.798,364.256 221.298,365.922 220.5,367.5C 219.197,364.355 219.197,361.355 220.5,358.5 Z"/></g>
<g><path style="opacity:1" fill="#7f8284" d="M 237.5,358.5 C 239.665,358.116 241.332,358.783 242.5,360.5C 241.07,360.306 239.57,360.306 238,360.5C 237.333,362.167 237.333,363.833 238,365.5C 239.183,366.731 240.349,366.731 241.5,365.5C 238.869,363.995 239.203,363.329 242.5,363.5C 242.5,364.833 242.5,366.167 242.5,367.5C 235.437,367.535 233.77,364.535 237.5,358.5 Z"/></g>
<g><path style="opacity:1" fill="#eceded" d="M 43.5,335.5 C 43.5,342.167 43.5,348.833 43.5,355.5C 44.5,355.5 45.5,355.5 46.5,355.5C 47.4767,352.713 47.81,349.713 47.5,346.5C 49.8333,346.5 52.1667,346.5 54.5,346.5C 56.1286,348.858 57.2952,351.524 58,354.5C 59.4609,355.883 60.2942,355.549 60.5,353.5C 61.4511,354.919 61.7845,356.585 61.5,358.5C 60.7611,358.369 60.0944,358.536 59.5,359C 60.756,359.417 61.4226,360.25 61.5,361.5C 59.8008,361.66 58.1341,361.494 56.5,361C 54.9315,358.696 53.7648,356.196 53,353.5C 48.6331,352.425 47.4664,354.092 49.5,358.5C 47.3652,358.147 46.0319,358.98 45.5,361C 46.6875,362.944 48.3542,364.444 50.5,365.5C 48.8918,366.242 47.2251,366.409 45.5,366C 47.272,367.487 49.272,367.82 51.5,367C 52.2524,366.329 52.5858,365.496 52.5,364.5C 53.552,364.351 54.552,364.517 55.5,365C 54.0292,367.243 53.0292,369.743 52.5,372.5C 49.9468,375.044 47.4468,375.044 45,372.5C 44.9071,369.993 44.0738,367.826 42.5,366C 42.4615,364.755 42.7948,363.422 43.5,362C 42.7113,360.374 41.7113,358.874 40.5,357.5C 40.9531,354.059 40.9531,350.726 40.5,347.5C 40.7754,343.084 41.7754,339.084 43.5,335.5 Z"/></g>
<g><path style="opacity:1" fill="#f4edf3" d="M 25.5,310.5 C 28.1667,310.5 30.8333,310.5 33.5,310.5C 33.1818,315.032 33.5151,319.366 34.5,323.5C 34.8333,324.167 35.1667,324.833 35.5,325.5C 34.5041,325.586 33.6708,325.252 33,324.5C 32.5012,320.514 32.3345,316.514 32.5,312.5C 30.5328,312.261 28.6995,312.594 27,313.5C 26.1859,326.546 26.3525,339.546 27.5,352.5C 26.0451,354.22 25.2117,356.22 25,358.5C 23.4056,359.573 21.9056,360.573 20.5,361.5C 19.7675,365.174 19.1008,368.841 18.5,372.5C 18.7093,373.086 19.0426,373.586 19.5,374C 17.5,374.333 15.5,374.667 13.5,375C 15.5951,375.556 15.7618,376.056 14,376.5C 10.2024,375.579 9.20241,373.579 11,370.5C 11.8144,351.635 11.6477,332.802 10.5,314C 10.6387,312.699 11.3054,311.866 12.5,311.5C 12.3334,330.836 12.5,350.17 13,369.5C 14.4609,370.883 15.2942,370.549 15.5,368.5C 16.5,368.167 17.1667,367.5 17.5,366.5C 18.1667,362.167 18.8333,357.833 19.5,353.5C 20.4916,353.672 21.1583,353.338 21.5,352.5C 22.1667,352.167 22.8333,351.833 23.5,351.5C 24.1667,337.833 24.8333,324.167 25.5,310.5 Z"/></g>
<g><path style="opacity:1" fill="#ca3669" d="M 16.5,351.5 C 16.7402,357.227 16.4069,362.894 15.5,368.5C 13.5772,364.971 12.9106,360.971 13.5,356.5C 13.9724,354.469 14.9724,352.802 16.5,351.5 Z"/></g>
<g><path style="opacity:1" fill="#d74366" d="M 23.5,345.5 C 23.5,347.5 23.5,349.5 23.5,351.5C 22.8333,351.833 22.1667,352.167 21.5,352.5C 20.5269,350.052 20.1936,347.385 20.5,344.5C 21.1174,344.389 21.6174,344.056 22,343.5C 22.2784,344.416 22.7784,345.082 23.5,345.5 Z"/></g>
<g><path style="opacity:1" fill="#a7367e" d="M 13.5,335.5 C 13.9397,337.844 14.9397,339.844 16.5,341.5C 16.5,341.833 16.5,342.167 16.5,342.5C 16.5,345.5 16.5,348.5 16.5,351.5C 14.9724,352.802 13.9724,354.469 13.5,356.5C 13.5,349.5 13.5,342.5 13.5,335.5 Z"/></g>
<g><path style="opacity:1" fill="#dc7eac" d="M 16.5,342.5 C 16.8333,342.5 17.1667,342.5 17.5,342.5C 17.5,350.5 17.5,358.5 17.5,366.5C 17.1667,367.5 16.5,368.167 15.5,368.5C 16.4069,362.894 16.7402,357.227 16.5,351.5C 16.5,348.5 16.5,345.5 16.5,342.5 Z"/></g>
<g><path style="opacity:1" fill="#e982a2" d="M 19.5,335.5 C 19.8333,335.5 20.1667,335.5 20.5,335.5C 20.5,338.5 20.5,341.5 20.5,344.5C 20.1936,347.385 20.5269,350.052 21.5,352.5C 21.1583,353.338 20.4916,353.672 19.5,353.5C 19.5,347.5 19.5,341.5 19.5,335.5 Z"/></g>
<g><path style="opacity:1" fill="#a82b76" d="M 23.5,325.5 C 23.5,332.167 23.5,338.833 23.5,345.5C 22.7784,345.082 22.2784,344.416 22,343.5C 21.6174,344.056 21.1174,344.389 20.5,344.5C 20.5,341.5 20.5,338.5 20.5,335.5C 20.5,332.5 20.5,329.5 20.5,326.5C 21.609,326.443 22.609,326.11 23.5,325.5 Z"/></g>
</svg>
